<?xml version="1.0" encoding="UTF-8"?>
<svg width="16px" height="30px" viewBox="0 0 16 30" version="1.1" xmlns="http://www.w3.org/2000/svg" xmlns:xlink="http://www.w3.org/1999/xlink">
    <!-- Generator: Sketch 50.2 (55047) - http://www.bohemiancoding.com/sketch -->
    <title>Fill 70</title>
    <desc>Created with Sketch.</desc>
    <defs></defs>
    <g id="Page-1" stroke="none" stroke-width="1" fill="none" fill-rule="evenodd">
        <g id="80-Thin-Line-Social-Icons---Black" transform="translate(-122.000000, -236.000000)" fill="#000000">
            <path d="M137.127,246.681 L132.566,246.681 C132.301,246.681 132.086,246.466 132.086,246.201 L132.086,243.166 C132.086,243.133 132.089,243.1 132.096,243.069 C132.44,240.419 135.831,240.282 137.157,240.331 L137.157,236.303 C135.459,235.979 128.398,235.007 126.845,240.795 C126.841,240.832 126.832,240.876 126.81,240.924 C126.722,241.192 126.664,241.854 126.627,242.62 C126.555,244.088 126.564,245.874 126.567,246.199 C126.568,246.463 126.355,246.678 126.091,246.679 L122.614,246.681 L122.614,251.118 L126.334,251.118 C126.599,251.118 126.814,251.333 126.814,251.598 L126.814,265.798 L131.97,265.798 L131.97,251.598 C131.97,251.333 132.185,251.118 132.45,251.118 L136.694,251.118 L137.127,246.681 Z" id="Fill-70"></path>
        </g>
    </g>
</svg>