<?xml version="1.0" encoding="UTF-8"?>
<svg width="18px" height="32px" viewBox="0 0 18 32" version="1.1" xmlns="http://www.w3.org/2000/svg" xmlns:xlink="http://www.w3.org/1999/xlink">
    <!-- Generator: Sketch 50.2 (55047) - http://www.bohemiancoding.com/sketch -->
    <title>Fill 70</title>
    <desc>Created with Sketch.</desc>
    <defs></defs>
    <g id="Page-1" stroke="none" stroke-width="1" fill="none" fill-rule="evenodd">
        <g id="80-Thin-Line-Social-Icons---Black" transform="translate(-121.000000, -235.000000)" fill="#000000">
            <path d="M137.127,246.681 L132.566,246.681 C132.301,246.681 132.086,246.466 132.086,246.201 L132.086,243.166 C132.086,243.133 132.089,243.1 132.096,243.069 C132.44,240.419 135.831,240.282 137.157,240.331 L137.157,236.303 C135.459,235.979 128.398,235.007 126.845,240.795 C126.841,240.832 126.832,240.876 126.81,240.924 C126.722,241.192 126.664,241.854 126.627,242.62 C126.555,244.088 126.564,245.874 126.567,246.199 C126.568,246.463 126.355,246.678 126.091,246.679 L122.614,246.681 L122.614,251.118 L126.334,251.118 C126.599,251.118 126.814,251.333 126.814,251.598 L126.814,265.798 L131.97,265.798 L131.97,251.598 C131.97,251.333 132.185,251.118 132.45,251.118 L136.694,251.118 L137.127,246.681 Z M133.046,245.721 L137.655,245.721 L137.7,245.724 C137.962,245.749 138.156,245.983 138.131,246.246 L137.607,251.607 C137.602,251.868 137.39,252.078 137.128,252.078 L132.93,252.078 L132.93,266.278 C132.93,266.543 132.715,266.758 132.45,266.758 L126.334,266.758 C126.069,266.758 125.854,266.543 125.854,266.278 L125.854,252.078 L122.134,252.078 C121.869,252.078 121.654,251.863 121.654,251.598 L121.654,246.201 C121.654,245.936 121.869,245.721 122.134,245.721 L125.609,245.721 C125.609,245.003 125.617,243.69 125.671,242.575 C125.712,241.743 125.781,241 125.895,240.641 C125.901,240.611 125.909,240.582 125.92,240.553 C127.86,233.3 137.091,235.296 137.71,235.438 C137.845,235.459 137.962,235.536 138.035,235.644 C138.087,235.721 138.117,235.814 138.117,235.913 C138.117,237.563 138.158,239.246 138.114,240.891 C138.087,241.154 137.851,241.345 137.589,241.319 C137.577,241.318 133.351,240.836 133.046,243.195 L133.046,245.721 Z" id="Fill-70"></path>
        </g>
    </g>
</svg>