<?xml version="1.0" encoding="UTF-8"?>
<svg width="33px" height="33px" viewBox="0 0 33 33" version="1.1" xmlns="http://www.w3.org/2000/svg" xmlns:xlink="http://www.w3.org/1999/xlink">
    <!-- Generator: Sketch 50.2 (55047) - http://www.bohemiancoding.com/sketch -->
    <title>Fill 87</title>
    <desc>Created with Sketch.</desc>
    <defs></defs>
    <g id="Page-1" stroke="none" stroke-width="1" fill="none" fill-rule="evenodd">
        <g id="80-Thin-Line-Social-Icons---Black" transform="translate(-40.000000, -381.000000)" fill="#000000">
            <path d="M56.074,382.88 C54.164,382.88 53.073,382.885 52.261,382.899 C51.467,382.912 50.933,382.935 50.134,382.972 C49.338,383.008 48.673,383.089 48.091,383.206 C47.515,383.321 47.015,383.475 46.547,383.656 C46.072,383.841 45.631,384.057 45.209,384.328 C44.789,384.599 44.385,384.924 43.982,385.326 C43.578,385.733 43.253,386.135 42.985,386.553 C42.714,386.975 42.497,387.415 42.312,387.891 C42.131,388.358 41.978,388.858 41.862,389.434 C41.745,390.016 41.664,390.682 41.628,391.478 C41.591,392.302 41.567,392.844 41.554,393.684 C41.541,394.457 41.537,395.636 41.537,397.798 C41.537,399.96 41.541,401.139 41.554,401.913 C41.567,402.752 41.591,403.295 41.628,404.119 C41.664,404.914 41.745,405.58 41.862,406.162 C41.978,406.738 42.131,407.238 42.312,407.706 C42.497,408.181 42.714,408.622 42.985,409.044 C43.254,409.464 43.579,409.867 43.982,410.27 L43.983,410.271 C44.386,410.674 44.789,410.998 45.209,411.268 C45.631,411.539 46.072,411.756 46.547,411.941 C47.015,412.122 47.515,412.275 48.091,412.391 C48.673,412.508 49.338,412.588 50.134,412.625 C50.958,412.662 51.501,412.686 52.34,412.699 C53.114,412.711 54.293,412.716 56.455,412.716 C58.617,412.716 59.796,412.711 60.569,412.699 C61.408,412.686 61.951,412.662 62.775,412.625 C63.571,412.588 64.237,412.508 64.818,412.391 C65.394,412.275 65.895,412.122 66.362,411.941 C66.838,411.756 67.278,411.539 67.7,411.268 C68.117,411 68.52,410.675 68.926,410.27 C69.329,409.868 69.654,409.464 69.924,409.044 C70.195,408.622 70.412,408.181 70.597,407.706 C70.778,407.238 70.931,406.738 71.047,406.162 C71.164,405.58 71.245,404.914 71.281,404.119 C71.317,403.32 71.34,402.786 71.354,401.992 C71.368,401.179 71.373,400.088 71.374,398.179 L71.372,397.417 C71.373,395.508 71.368,394.417 71.354,393.605 C71.34,392.811 71.317,392.276 71.281,391.478 C71.245,390.682 71.164,390.016 71.047,389.434 C70.931,388.858 70.778,388.358 70.597,387.891 C70.412,387.415 70.195,386.975 69.924,386.553 C69.656,386.135 69.331,385.733 68.926,385.327 C68.52,384.922 68.117,384.597 67.7,384.328 C67.278,384.057 66.838,383.841 66.362,383.656 C65.895,383.475 65.394,383.321 64.818,383.206 C64.237,383.089 63.571,383.008 62.775,382.972 C61.976,382.935 61.442,382.912 60.648,382.899 C59.836,382.885 58.745,382.88 56.836,382.879 L56.074,382.88 Z M52.247,381.98 C53.059,381.966 54.154,381.961 56.074,381.96 L56.836,381.958 C58.755,381.961 59.85,381.966 60.663,381.98 C61.494,381.994 62.025,382.017 62.815,382.053 C63.656,382.091 64.368,382.178 64.999,382.305 C65.635,382.433 66.184,382.6 66.694,382.798 C67.23,383.007 67.724,383.25 68.197,383.553 C68.675,383.86 69.129,384.225 69.578,384.675 C70.027,385.124 70.393,385.578 70.699,386.056 C71.003,386.529 71.246,387.023 71.454,387.559 C71.653,388.069 71.82,388.618 71.948,389.254 C72.075,389.885 72.162,390.597 72.2,391.438 C72.236,392.227 72.259,392.759 72.273,393.59 C72.287,394.402 72.292,395.498 72.293,397.417 L72.295,398.179 C72.292,400.099 72.287,401.194 72.273,402.006 C72.259,402.838 72.236,403.369 72.2,404.159 C72.162,404.999 72.075,405.712 71.948,406.342 C71.82,406.978 71.653,407.527 71.454,408.038 C71.246,408.573 71.003,409.068 70.699,409.541 C70.395,410.015 70.03,410.469 69.578,410.92 C69.129,411.371 68.675,411.737 68.197,412.043 C67.724,412.347 67.23,412.59 66.694,412.798 C66.184,412.997 65.635,413.164 64.999,413.292 C64.368,413.418 63.656,413.505 62.815,413.544 C61.999,413.581 61.46,413.604 60.583,413.618 C59.64,413.633 58.469,413.638 56.455,413.638 C54.44,413.638 53.269,413.633 52.326,413.618 C51.45,413.604 50.91,413.581 50.094,413.544 C49.253,413.505 48.541,413.418 47.911,413.292 C47.275,413.164 46.726,412.997 46.215,412.798 C45.68,412.59 45.185,412.347 44.712,412.043 C44.238,411.739 43.784,411.373 43.333,410.922 L43.331,410.92 C42.879,410.469 42.514,410.015 42.21,409.541 C41.906,409.068 41.663,408.573 41.455,408.038 C41.256,407.527 41.089,406.978 40.961,406.342 C40.834,405.712 40.747,404.999 40.709,404.159 C40.672,403.343 40.649,402.803 40.635,401.927 C40.62,400.984 40.615,399.813 40.615,397.798 C40.615,395.784 40.62,394.612 40.635,393.67 C40.649,392.793 40.672,392.254 40.709,391.438 C40.747,390.597 40.834,389.885 40.961,389.254 C41.089,388.618 41.256,388.069 41.455,387.559 C41.663,387.023 41.906,386.529 42.21,386.056 C42.516,385.578 42.882,385.124 43.331,384.675 C43.784,384.223 44.238,383.858 44.712,383.553 C45.185,383.25 45.68,383.006 46.215,382.798 C46.726,382.6 47.275,382.433 47.911,382.305 C48.541,382.178 49.253,382.091 50.094,382.053 C50.884,382.017 51.415,381.994 52.247,381.98 Z M66.97,389.589 C66.97,390.225 66.712,390.801 66.295,391.219 L66.293,391.22 C65.875,391.637 65.299,391.896 64.664,391.896 C64.028,391.896 63.452,391.637 63.034,391.22 L63.033,391.219 C62.615,390.801 62.357,390.225 62.357,389.589 C62.357,388.953 62.615,388.377 63.033,387.96 L63.034,387.958 C63.452,387.541 64.028,387.283 64.664,387.283 C65.299,387.283 65.875,387.541 66.293,387.958 L66.295,387.96 C66.712,388.377 66.97,388.953 66.97,389.589 Z M65.643,390.569 C65.893,390.319 66.048,389.972 66.048,389.589 C66.048,389.206 65.893,388.86 65.643,388.61 C65.393,388.36 65.047,388.205 64.664,388.205 C64.281,388.205 63.934,388.36 63.684,388.61 C63.434,388.86 63.28,389.206 63.28,389.589 C63.28,389.972 63.435,390.319 63.684,390.569 C63.934,390.818 64.281,390.973 64.664,390.973 C65.047,390.973 65.393,390.819 65.643,390.569 Z M56.455,403.386 C54.912,403.386 53.515,402.76 52.504,401.749 C51.492,400.738 50.867,399.341 50.867,397.798 C50.867,396.255 51.492,394.858 52.504,393.847 C53.514,392.836 54.912,392.211 56.455,392.211 C57.997,392.211 59.395,392.836 60.405,393.847 C61.417,394.858 62.042,396.255 62.042,397.798 C62.042,399.341 61.417,400.738 60.405,401.749 C59.395,402.76 57.997,403.386 56.455,403.386 Z M53.156,401.097 C54,401.941 55.166,402.463 56.455,402.463 C57.743,402.463 58.909,401.941 59.753,401.097 C60.597,400.253 61.119,399.086 61.119,397.798 C61.119,396.51 60.597,395.344 59.753,394.5 C58.909,393.656 57.743,393.134 56.455,393.134 C55.166,393.134 54,393.656 53.156,394.5 C52.312,395.344 51.79,396.51 51.79,397.798 C51.79,399.086 52.312,400.253 53.156,401.097 Z M56.455,390.363 C54.401,390.363 52.542,391.195 51.197,392.54 C49.852,393.886 49.019,395.745 49.019,397.798 C49.019,399.852 49.851,401.711 51.197,403.056 C52.542,404.402 54.401,405.234 56.455,405.234 C58.508,405.234 60.367,404.401 61.712,403.056 C63.058,401.711 63.89,399.852 63.89,397.798 C63.89,395.745 63.058,393.886 61.712,392.54 C60.367,391.195 58.508,390.363 56.455,390.363 Z M50.544,391.888 C52.057,390.375 54.147,389.44 56.455,389.44 C58.762,389.44 60.852,390.375 62.365,391.888 C63.878,393.4 64.813,395.49 64.813,397.798 C64.813,400.106 63.878,402.196 62.365,403.709 C60.852,405.221 58.762,406.157 56.455,406.157 C54.147,406.157 52.057,405.221 50.544,403.709 C49.032,402.196 48.096,400.106 48.096,397.798 C48.096,395.49 49.032,393.4 50.544,391.888 Z M56.455,384.729 C58.433,384.729 59.574,384.734 60.5,384.748 C61.357,384.762 61.883,384.784 62.688,384.821 C63.469,384.856 64.073,384.94 64.551,385.042 C65.036,385.145 65.4,385.268 65.69,385.381 C66.079,385.532 66.414,385.699 66.726,385.902 C67.039,386.106 67.326,386.343 67.617,386.634 L67.619,386.636 C67.91,386.927 68.147,387.213 68.351,387.527 C68.554,387.839 68.721,388.174 68.872,388.563 C68.985,388.853 69.108,389.216 69.211,389.702 C69.313,390.18 69.396,390.783 69.432,391.564 C69.469,392.37 69.491,392.896 69.504,393.752 C69.519,394.679 69.523,395.82 69.523,397.798 C69.523,399.777 69.519,400.918 69.504,401.844 C69.491,402.701 69.469,403.227 69.432,404.032 C69.396,404.813 69.313,405.416 69.211,405.895 C69.108,406.38 68.985,406.743 68.872,407.034 C68.721,407.423 68.554,407.758 68.351,408.07 C68.147,408.383 67.909,408.67 67.618,408.961 C67.33,409.251 67.044,409.488 66.726,409.694 C66.414,409.897 66.079,410.064 65.69,410.215 C65.4,410.328 65.037,410.452 64.551,410.555 C64.073,410.657 63.469,410.74 62.688,410.776 C61.883,410.812 61.357,410.835 60.499,410.848 C59.573,410.863 58.431,410.867 56.455,410.867 C54.479,410.867 53.336,410.863 52.41,410.848 C51.552,410.835 51.026,410.812 50.221,410.776 C49.44,410.74 48.836,410.657 48.358,410.555 C47.872,410.452 47.51,410.328 47.219,410.215 C46.83,410.064 46.495,409.897 46.183,409.694 C45.866,409.488 45.579,409.251 45.29,408.963 C45.002,408.674 44.765,408.387 44.559,408.07 C44.355,407.758 44.188,407.423 44.037,407.034 C43.925,406.743 43.801,406.38 43.698,405.895 C43.596,405.416 43.513,404.813 43.477,404.032 C43.441,403.226 43.418,402.701 43.405,401.843 C43.39,400.916 43.386,399.774 43.386,397.798 C43.386,395.823 43.39,394.681 43.405,393.754 C43.418,392.896 43.441,392.37 43.477,391.564 C43.513,390.783 43.596,390.18 43.698,389.702 C43.801,389.216 43.925,388.853 44.037,388.563 C44.188,388.174 44.355,387.839 44.559,387.527 C44.765,387.209 45.002,386.922 45.29,386.634 C45.583,386.344 45.87,386.106 46.183,385.902 C46.495,385.699 46.83,385.532 47.219,385.381 C47.51,385.268 47.873,385.145 48.358,385.042 C48.836,384.94 49.44,384.856 50.221,384.821 C51.026,384.784 51.552,384.762 52.409,384.748 C53.335,384.734 54.476,384.729 56.455,384.729 Z M60.487,385.667 C59.738,385.656 58.582,385.652 56.455,385.652 C54.327,385.652 53.171,385.656 52.423,385.667 C51.604,385.68 51.076,385.703 50.26,385.74 C49.542,385.773 48.988,385.849 48.549,385.942 C48.117,386.034 47.801,386.141 47.551,386.239 C47.222,386.366 46.941,386.506 46.684,386.674 C46.428,386.84 46.189,387.039 45.943,387.285 C45.693,387.536 45.494,387.775 45.33,388.028 C45.162,388.285 45.023,388.566 44.895,388.894 C44.798,389.145 44.69,389.461 44.599,389.893 C44.505,390.332 44.429,390.886 44.396,391.604 C44.359,392.42 44.336,392.948 44.324,393.765 C44.312,394.514 44.308,395.668 44.308,397.798 C44.308,399.928 44.312,401.083 44.324,401.831 C44.336,402.648 44.359,403.177 44.396,403.993 C44.429,404.711 44.505,405.265 44.599,405.704 C44.69,406.136 44.798,406.451 44.895,406.702 C45.023,407.031 45.162,407.311 45.33,407.569 C45.494,407.822 45.693,408.06 45.943,408.31 C46.193,408.559 46.431,408.759 46.684,408.923 C46.941,409.091 47.222,409.23 47.551,409.358 C47.801,409.455 48.117,409.563 48.549,409.654 C48.988,409.747 49.542,409.824 50.26,409.857 C51.076,409.894 51.604,409.916 52.421,409.929 C53.169,409.941 54.324,409.944 56.455,409.944 C58.585,409.944 59.74,409.941 60.488,409.929 C61.305,409.916 61.834,409.894 62.649,409.857 C63.367,409.824 63.921,409.747 64.36,409.654 C64.792,409.563 65.108,409.455 65.358,409.358 C65.687,409.23 65.968,409.091 66.225,408.923 C66.478,408.759 66.717,408.559 66.966,408.31 C67.214,408.064 67.412,407.825 67.579,407.569 C67.747,407.311 67.887,407.031 68.014,406.702 C68.112,406.451 68.219,406.136 68.31,405.704 C68.404,405.265 68.48,404.711 68.513,403.993 C68.55,403.177 68.573,402.649 68.585,401.831 C68.597,401.082 68.601,399.926 68.601,397.798 C68.601,395.671 68.597,394.515 68.585,393.767 C68.573,392.948 68.55,392.419 68.513,391.604 C68.48,390.886 68.404,390.332 68.31,389.893 C68.219,389.461 68.112,389.145 68.014,388.894 C67.887,388.566 67.747,388.285 67.579,388.028 C67.413,387.771 67.214,387.533 66.968,387.287 L66.966,387.285 C66.72,387.039 66.482,386.84 66.225,386.674 C65.968,386.506 65.687,386.366 65.358,386.239 C65.108,386.141 64.792,386.034 64.36,385.942 C63.921,385.849 63.367,385.773 62.649,385.74 C61.834,385.703 61.305,385.68 60.487,385.667 Z" id="Fill-87"></path>
        </g>
    </g>
</svg>