<?xml version="1.0" encoding="UTF-8"?>
<svg width="33px" height="33px" viewBox="0 0 33 33" version="1.1" xmlns="http://www.w3.org/2000/svg" xmlns:xlink="http://www.w3.org/1999/xlink">
    <!-- Generator: Sketch 50.2 (55047) - http://www.bohemiancoding.com/sketch -->
    <title>Fill 51</title>
    <desc>Created with Sketch.</desc>
    <defs></defs>
    <g id="Page-1" stroke="none" stroke-width="1" fill="none" fill-rule="evenodd">
        <g id="80-Thin-Line-Social-Icons---Black" transform="translate(-40.000000, -455.000000)" fill="#FFFFFF">
            <path d="M48.047,487.086 L41.704,487.086 C41.439,487.086 41.224,486.871 41.224,486.606 L41.224,466.116 C41.224,465.851 41.439,465.636 41.704,465.636 L48.047,465.636 C48.312,465.636 48.527,465.851 48.527,466.116 L48.527,486.606 C48.527,486.871 48.312,487.086 48.047,487.086 Z M44.845,463.912 C43.677,463.912 42.619,463.434 41.854,462.662 C41.088,461.891 40.615,460.826 40.615,459.652 C40.615,458.477 41.088,457.413 41.854,456.641 C42.619,455.869 43.677,455.391 44.845,455.391 C46.013,455.391 47.07,455.869 47.836,456.641 C48.602,457.413 49.075,458.477 49.075,459.652 C49.075,460.826 48.602,461.891 47.836,462.662 C47.071,463.434 46.013,463.912 44.845,463.912 Z M71.814,487.086 L65.503,487.086 C65.238,487.086 65.023,486.871 65.023,486.606 L65.023,475.85 C65.023,474.46 64.767,473.396 64.246,472.703 C63.77,472.068 63.04,471.733 62.049,471.733 C60.944,471.733 60.108,472.092 59.554,472.751 C58.966,473.45 58.665,474.505 58.665,475.85 L58.665,486.606 C58.665,486.871 58.45,487.086 58.185,487.086 L52.102,487.086 C51.837,487.086 51.622,486.871 51.622,486.606 L51.622,466.116 C51.622,465.851 51.837,465.636 52.102,465.636 L58.185,465.636 C58.45,465.636 58.665,465.851 58.665,466.116 L58.665,467.457 C59.654,466.397 61.495,465.01 64.359,465.01 C66.743,465.01 68.786,465.775 70.21,467.33 C71.525,468.766 72.294,470.862 72.294,473.632 L72.294,486.606 C72.294,486.871 72.079,487.086 71.814,487.086 Z" id="Fill-51"></path>
        </g>
    </g>
</svg>