<?xml version="1.0" encoding="UTF-8"?>
<svg width="26px" height="33px" viewBox="0 0 26 33" version="1.1" xmlns="http://www.w3.org/2000/svg" xmlns:xlink="http://www.w3.org/1999/xlink">
    <!-- Generator: Sketch 50.2 (55047) - http://www.bohemiancoding.com/sketch -->
    <title>Fill 52</title>
    <desc>Created with Sketch.</desc>
    <defs></defs>
    <g id="Page-1" stroke="none" stroke-width="1" fill="none" fill-rule="evenodd">
        <g id="80-Thin-Line-Social-Icons---Black" transform="translate(-190.000000, -528.000000)" fill="#000000">
            <path d="M205.705,552 C204.704,552 203.731,551.738 202.92,551.324 C202.418,551.068 201.973,550.75 201.616,550.396 C201.298,551.652 200.763,553.757 200.614,554.298 C199.856,557.048 197.717,559.766 197.377,560.198 L197.347,560.235 C197.225,560.395 197.053,560.486 196.875,560.51 C196.781,560.522 196.686,560.517 196.599,560.496 C196.508,560.473 196.419,560.431 196.34,560.371 C196.204,560.267 196.102,560.112 196.075,559.913 L196.063,559.833 C195.967,559.181 195.475,555.821 196.134,553.029 L198.368,543.568 C198.203,543.173 197.827,542.119 197.827,540.732 C197.827,539.33 198.236,538.095 198.902,537.202 C199.608,536.253 200.601,535.684 201.711,535.684 C202.619,535.684 203.313,536.016 203.795,536.552 C204.314,537.131 204.57,537.939 204.57,538.813 C204.57,539.912 204.14,541.303 203.688,542.767 C203.443,543.56 203.191,544.376 202.999,545.185 C202.952,545.386 202.929,545.581 202.929,545.771 C202.929,546.303 203.111,546.779 203.419,547.15 C203.731,547.526 204.174,547.8 204.691,547.922 C204.888,547.968 205.099,547.993 205.317,547.993 C206.763,547.993 207.995,547.061 208.885,545.568 C209.866,543.923 210.432,541.613 210.432,539.091 C210.432,537.235 209.794,535.624 208.579,534.505 C207.426,533.443 205.74,532.81 203.57,532.81 C201.13,532.81 199.137,533.679 197.729,535.049 C196.209,536.528 195.362,538.593 195.362,540.781 C195.362,541.493 195.466,542.096 195.65,542.614 C195.831,543.123 196.093,543.555 196.413,543.932 C196.622,544.179 196.744,544.365 196.803,544.59 C196.866,544.828 196.844,545.045 196.764,545.348 L196.404,546.761 C196.388,546.823 196.368,546.883 196.344,546.94 C196.232,547.214 196.047,547.41 195.815,547.522 C195.586,547.633 195.323,547.656 195.05,547.584 C194.994,547.569 194.936,547.548 194.877,547.525 C193.586,547 192.628,546.052 191.981,544.844 C191.294,543.564 190.964,541.996 190.964,540.341 C190.964,537.48 192.278,534.309 194.894,532.022 C197.062,530.128 200.12,528.839 204.054,528.839 C207.42,528.839 210.24,530.016 212.262,531.845 C214.453,533.828 215.705,536.576 215.705,539.427 C215.703,543.033 214.684,546.187 212.918,548.43 C211.16,550.664 208.668,552 205.705,552 Z" id="Fill-52"></path>
        </g>
    </g>
</svg>