<?xml version="1.0" encoding="UTF-8"?>
<svg width="179px" height="241px" viewBox="0 0 179 241" version="1.1" xmlns="http://www.w3.org/2000/svg" xmlns:xlink="http://www.w3.org/1999/xlink">
    <!-- Generator: Sketch 50.2 (55047) - http://www.bohemiancoding.com/sketch -->
    <title>Page 1</title>
    <desc>Created with Sketch.</desc>
    <defs>
        <polygon id="path-1" points="0 0 55.9534752 0 55.9534752 17.8454459 0 17.8454459"></polygon>
    </defs>
    <g id="Page-1" stroke="none" stroke-width="1" fill="none" fill-rule="evenodd">
        <g id="about-us" transform="translate(-592.000000, -204.000000)">
            <g id="Page-1" transform="translate(592.000000, 204.000000)">
                <path d="M62.4997119,89 C57.2531465,89 53,93.2531465 53,98.5002881 C53,103.746853 57.2531465,108 62.4997119,108 C67.7462773,108 72,103.746853 72,98.5002881 C72,93.2531465 67.7462773,89 62.4997119,89" id="Fill-1" fill="#232323"></path>
                <g id="Group-5" transform="translate(61.000000, 223.000000)">
                    <mask id="mask-2" fill="white">
                        <use xlink:href="#path-1"></use>
                    </mask>
                    <g id="Clip-4"></g>
                    <path d="M27.7588489,0 L0,0 C3.29713057,17.4038167 25.5531983,17.8488474 27.9770285,17.8454459 C30.4002769,17.8488474 52.6563447,17.4038167 55.9534752,0 L28.1946263,0 L27.7588489,0 Z" id="Fill-3" fill="#232323" mask="url(#mask-2)"></path>
                </g>
                <path d="M113,98.5002881 C113,103.746853 117.253723,108 122.499712,108 C127.746277,108 132,103.746853 132,98.5002881 C132,93.2531465 127.746277,89 122.499712,89 C117.253723,89 113,93.2531465 113,98.5002881 Z" id="Fill-6" fill="#232323"></path>
                <path d="M87.6997598,19.114468 L87.6997598,37 L97,37 L97,19.2591168 C100.547038,17.6355789 103,14.1530149 103,10.1173141 C103,4.52924251 98.2988391,0 92.5,0 C86.7005604,0 82,4.52924251 82,10.1173141 C82,14.0378745 84.3160528,17.4348064 87.6997598,19.114468" id="Fill-8" fill="#232323"></path>
                <g id="Group-12" transform="translate(0.000000, 42.000000)" fill="#232323">
                    <path d="M131.645612,74.3695114 C129.303551,76.7433105 126.166706,79.1979296 117.110117,79.1979296 L102.136101,79.1979296 L89.6159489,79.1979296 L89.4711269,79.1979296 L77.3680622,79.1979296 L61.9775379,79.1979296 C52.9209489,79.1979296 49.7841042,76.7433105 47.4420427,74.3695114 C42.2151269,69.0706053 42.9392369,60.7507628 43.1657385,58.1443175 C44.9232984,37.9473974 56.5565605,22.2954483 82.8012046,20.2899575 C82.8012046,20.2893802 82.8006253,20.2888029 82.8006253,20.2882256 C82.8006253,20.2882256 89.6159489,19.6763027 95.5484376,20.2356926 C95.5704505,20.2374245 95.5884084,20.2397336 95.6086835,20.2414655 C122.33124,22.028165 134.148716,37.774789 135.921917,58.1443175 C136.148418,60.7507628 136.871949,69.0706053 131.645612,74.3695114 Z M113.870717,120.651326 L103.588934,130.896994 C103.006749,131.678639 101.909578,131.716162 101.366205,131.174091 C100.822254,130.63202 100.859908,129.539218 101.643684,128.958468 C105.070752,125.543246 108.49782,122.128023 111.925468,118.7128 L101.643684,108.467132 C100.983875,107.935452 100.943325,106.949448 101.505235,106.389481 C102.066565,105.830091 103.055989,105.870501 103.588934,106.528607 C107.016581,109.943829 110.443649,113.359052 113.870717,116.774275 C113.993526,116.890886 114.704312,117.588248 114.704312,118.7128 C114.704312,119.836776 113.993526,120.534137 113.870717,120.651326 Z M95,158.303806 C95,156.479006 96.4847152,155 98.3158447,155 C100.146974,155 101.631689,156.479006 101.631689,158.303806 C101.631689,160.129184 100.146974,161.60819 98.3158447,161.60819 C96.4847152,161.60819 95,160.129184 95,158.303806 Z M95.6558148,106.798338 L89.9092775,131.601421 C89.7268018,132.388262 88.9320186,132.883573 88.1418698,132.702305 C87.3523002,132.52046 86.8552711,131.727847 87.0377468,130.940429 L92.7837047,106.137923 C92.9661805,105.351083 93.7615429,104.855771 94.5511125,105.037616 C95.3412614,105.218884 95.8377112,106.011497 95.6558148,106.798338 Z M86,158.303806 C86,156.479006 87.4841359,155 89.3152654,155 C91.1463948,155 92.63111,156.479006 92.63111,158.303806 C92.63111,160.129184 91.1463948,161.60819 89.3152654,161.60819 C87.4841359,161.60819 86,160.129184 86,158.303806 Z M77,158.303806 C77,156.479006 78.4847152,155 80.3158447,155 C82.1469741,155 83.6316893,156.479006 83.6316893,158.303806 C83.6316893,160.129184 82.1469741,161.60819 80.3158447,161.60819 C78.4847152,161.60819 77,160.129184 77,158.303806 Z M67.8335955,120.651326 C67.7102071,120.534137 67,119.836776 67,118.7128 C67,117.588248 67.7102071,116.890886 67.8335955,116.774275 C71.2606634,113.359052 74.6877314,109.943829 78.1147994,106.528607 C78.6483236,105.870501 79.6371683,105.830091 80.1990777,106.389481 C80.7604078,106.949448 80.7204369,107.935452 80.0600485,108.467132 L69.7782654,118.7128 C73.2059126,122.128023 76.6329806,125.543246 80.0600485,128.958468 C80.8444045,129.539218 80.881479,130.63202 80.3381068,131.174091 C79.7941553,131.716162 78.6969838,131.678639 78.1147994,130.896994 L67.8335955,120.651326 Z M171.909552,153.13602 L171.909552,106.134567 C171.909552,106.134567 172.777905,92.0026109 155.992455,85.657663 L155.992455,61.4312882 C155.992455,39.8234818 135.197753,0.0865928659 89.5724486,0.00230914309 L89.5724486,0 C89.5481186,0 89.5243677,0.00115457155 89.5000376,0.00115457155 C89.4757075,0.00115457155 89.4519567,0 89.4276266,0 L89.4276266,0.00230914309 C43.8029017,0.0865928659 23.0081995,39.8234818 23.0081995,61.4312882 L23.0081995,85.657663 C6.22274962,92.0026109 7.09110237,106.134567 7.09110237,106.134567 L7.09110237,153.13602 C2.71573991,155.055495 -0.27686203,159.527728 0.0203127274,164.660953 C0.360934087,170.546959 5.11630949,175.34709 11.0175166,175.755808 C17.9544907,176.236687 23.7317302,170.770945 23.7317302,163.960705 C23.7317302,159.012212 20.6806202,154.776089 16.3516008,153.013058 L16.3516008,122.862576 C16.3516008,122.862576 19.8244325,125.16941 23.0081995,125.746696 L23.0081995,137.859884 C23.0081995,152.856613 33.9978726,175.064797 55.711905,175.064797 L89.4276266,175.064797 L89.5724486,175.064797 L123.28875,175.064797 C145.002203,175.064797 155.992455,152.856613 155.992455,137.859884 L155.992455,125.746696 C159.175643,125.16941 162.648475,122.862576 162.648475,122.862576 L162.648475,153.013058 C158.149144,154.84594 155.029678,159.349924 155.282827,164.548959 C155.580581,170.664148 160.640083,175.602827 166.781115,175.780054 C173.495064,175.974599 179.000038,170.608151 179.000038,163.960705 C179.000038,159.123628 176.083902,154.967747 171.909552,153.13602 Z" id="Fill-10"></path>
                </g>
            </g>
        </g>
    </g>
</svg>