<?xml version="1.0" encoding="UTF-8"?>
<svg width="33px" height="27px" viewBox="0 0 33 27" version="1.1" xmlns="http://www.w3.org/2000/svg" xmlns:xlink="http://www.w3.org/1999/xlink">
    <!-- Generator: Sketch 50.2 (55047) - http://www.bohemiancoding.com/sketch -->
    <title>Fill 12</title>
    <desc>Created with Sketch.</desc>
    <defs></defs>
    <g id="Page-1" stroke="none" stroke-width="1" fill="none" fill-rule="evenodd">
        <g id="80-Thin-Line-Social-Icons---Black" transform="translate(-407.000000, -825.000000)" fill="#000000">
            <path d="M436.359,832.407 C436.365,832.593 436.368,832.769 436.368,832.934 C436.368,837.255 434.774,841.74 431.794,845.206 C428.81,848.678 424.44,851.13 418.893,851.38 C418.562,851.395 418.249,851.402 417.956,851.402 C416.165,851.402 414.43,851.143 412.788,850.662 C411.089,850.164 409.492,849.427 408.036,848.492 C407.813,848.349 407.748,848.052 407.891,847.83 C407.993,847.671 408.175,847.593 408.351,847.613 C409.963,847.803 411.573,847.674 413.098,847.248 C414.231,846.931 415.32,846.449 416.328,845.811 C415.359,845.605 414.466,845.193 413.7,844.623 C412.576,843.787 411.718,842.611 411.282,841.248 C411.201,840.997 411.339,840.727 411.591,840.646 C411.67,840.621 411.751,840.618 411.828,840.632 C412.051,840.674 412.274,840.703 412.494,840.72 C411.74,840.292 411.083,839.728 410.551,839.069 C409.57,837.854 409.013,836.316 409.05,834.726 C409.055,834.462 409.273,834.252 409.537,834.257 C409.618,834.258 409.694,834.28 409.76,834.317 L409.765,834.319 C410.09,834.499 410.435,834.65 410.795,834.766 C410.038,833.909 409.526,832.889 409.277,831.813 C408.897,830.174 409.124,828.402 410.018,826.868 C410.151,826.639 410.444,826.561 410.673,826.694 C410.731,826.727 410.779,826.771 410.817,826.822 C412.353,828.701 414.273,830.255 416.457,831.362 C418.403,832.348 420.56,832.981 422.84,833.174 C422.798,832.864 422.777,832.556 422.777,832.253 C422.777,830.692 423.323,829.219 424.25,828.048 C425.178,826.877 426.487,826.007 428.013,825.652 C428.512,825.536 429.031,825.474 429.564,825.474 C430.517,825.474 431.429,825.674 432.258,826.032 C433.032,826.368 433.731,826.842 434.322,827.423 C434.917,827.292 435.497,827.118 436.057,826.904 C436.708,826.655 437.332,826.353 437.923,826.003 C438.151,825.869 438.445,825.944 438.579,826.172 C438.655,826.3 438.664,826.45 438.617,826.58 C438.364,827.36 437.974,828.079 437.476,828.705 C437.377,828.829 437.275,828.95 437.168,829.066 C437.737,828.907 438.29,828.708 438.821,828.473 C439.063,828.366 439.345,828.475 439.451,828.717 C439.52,828.872 439.499,829.044 439.411,829.175 C438.973,829.833 438.476,830.45 437.931,831.016 C437.446,831.52 436.92,831.986 436.359,832.407 Z M435.407,832.934 C435.407,832.664 435.402,832.417 435.392,832.193 C435.386,832.038 435.455,831.882 435.591,831.785 C436.181,831.359 436.734,830.879 437.241,830.353 C437.374,830.214 437.504,830.072 437.631,829.928 L437.371,830.002 C436.742,830.175 436.101,830.302 435.452,830.379 C435.27,830.4 435.085,830.316 434.985,830.149 C434.849,829.922 434.923,829.628 435.15,829.492 C435.753,829.13 436.288,828.66 436.726,828.109 C436.884,827.91 437.03,827.7 437.162,827.48 C436.911,827.595 436.657,827.702 436.399,827.8 C435.711,828.063 434.995,828.27 434.256,828.416 C434.1,828.445 433.932,828.397 433.815,828.273 C433.272,827.695 432.614,827.228 431.879,826.91 C431.173,826.605 430.39,826.435 429.564,826.435 C429.101,826.435 428.655,826.487 428.231,826.586 C426.919,826.891 425.795,827.637 425,828.64 C424.205,829.644 423.737,830.909 423.737,832.253 C423.737,832.693 423.787,833.139 423.89,833.585 C423.899,833.627 423.904,833.671 423.902,833.716 C423.89,833.98 423.665,834.184 423.401,834.172 C420.756,834.039 418.259,833.349 416.025,832.217 C413.935,831.157 412.073,829.708 410.534,827.967 C410.031,829.13 409.934,830.406 410.21,831.599 C410.532,832.984 411.358,834.26 412.641,835.12 C412.777,835.208 412.866,835.362 412.861,835.536 C412.854,835.8 412.634,836.008 412.37,836.001 C411.822,835.984 411.29,835.901 410.782,835.761 C410.53,835.692 410.283,835.607 410.042,835.51 C410.169,836.594 410.613,837.622 411.297,838.47 C412.121,839.489 413.293,840.246 414.677,840.523 C414.849,840.56 414.996,840.688 415.045,840.868 C415.114,841.123 414.964,841.386 414.709,841.455 C414.221,841.588 413.709,841.67 413.186,841.689 C412.953,841.698 412.718,841.695 412.48,841.679 C412.892,842.543 413.51,843.289 414.27,843.854 C415.213,844.555 416.375,844.978 417.633,845.001 C417.773,845.003 417.91,845.066 418.003,845.185 C418.165,845.393 418.128,845.694 417.92,845.856 C416.547,846.932 414.995,847.712 413.353,848.171 C412.347,848.452 411.309,848.613 410.257,848.649 C411.15,849.09 412.087,849.458 413.058,849.743 C414.608,850.197 416.252,850.442 417.956,850.442 C418.281,850.442 418.579,850.436 418.852,850.423 C424.107,850.187 428.245,847.867 431.067,844.584 C433.895,841.294 435.407,837.037 435.407,832.934 Z" id="Fill-12"></path>
        </g>
    </g>
</svg>