<?xml version="1.0" encoding="UTF-8"?>
<svg width="33px" height="27px" viewBox="0 0 33 27" version="1.1" xmlns="http://www.w3.org/2000/svg" xmlns:xlink="http://www.w3.org/1999/xlink">
    <!-- Generator: Sketch 50.2 (55047) - http://www.bohemiancoding.com/sketch -->
    <title>Fill 12</title>
    <desc>Created with Sketch.</desc>
    <defs></defs>
    <g id="Page-1" stroke="none" stroke-width="1" fill="none" fill-rule="evenodd">
        <g id="80-Thin-Line-Social-Icons---Black" transform="translate(-407.000000, -825.000000)" fill="#FFFFFF">
            <path d="M436.359,832.407 C436.365,832.593 436.368,832.769 436.368,832.934 C436.368,837.255 434.774,841.74 431.794,845.206 C428.81,848.678 424.44,851.13 418.893,851.38 C418.562,851.395 418.249,851.402 417.956,851.402 C416.165,851.402 414.43,851.143 412.788,850.662 C411.089,850.164 409.492,849.427 408.036,848.492 C407.813,848.349 407.748,848.052 407.891,847.83 C407.993,847.671 408.175,847.593 408.351,847.613 C409.963,847.803 411.573,847.674 413.098,847.248 C414.231,846.931 415.32,846.449 416.328,845.811 C415.359,845.605 414.466,845.193 413.7,844.623 C412.576,843.787 411.718,842.611 411.282,841.248 C411.201,840.997 411.339,840.727 411.591,840.646 C411.67,840.621 411.751,840.618 411.828,840.632 C412.051,840.674 412.274,840.703 412.494,840.72 C411.74,840.292 411.083,839.728 410.551,839.069 C409.57,837.854 409.013,836.316 409.05,834.726 C409.055,834.462 409.273,834.252 409.537,834.257 C409.618,834.258 409.694,834.28 409.76,834.317 L409.765,834.319 C410.09,834.499 410.435,834.65 410.795,834.766 C410.038,833.909 409.526,832.889 409.277,831.813 C408.897,830.174 409.124,828.402 410.018,826.868 C410.151,826.639 410.444,826.561 410.673,826.694 C410.731,826.727 410.779,826.771 410.817,826.822 C412.353,828.701 414.273,830.255 416.457,831.362 C418.403,832.348 420.56,832.981 422.84,833.174 C422.798,832.864 422.777,832.556 422.777,832.253 C422.777,830.692 423.323,829.219 424.25,828.048 C425.178,826.877 426.487,826.007 428.013,825.652 C428.512,825.536 429.031,825.474 429.564,825.474 C430.517,825.474 431.429,825.674 432.258,826.032 C433.032,826.368 433.731,826.842 434.322,827.423 C434.917,827.292 435.497,827.118 436.057,826.904 C436.708,826.655 437.332,826.353 437.923,826.003 C438.151,825.869 438.445,825.944 438.579,826.172 C438.655,826.3 438.664,826.45 438.617,826.58 C438.364,827.36 437.974,828.079 437.476,828.705 C437.377,828.829 437.275,828.95 437.168,829.066 C437.737,828.907 438.29,828.708 438.821,828.473 C439.063,828.366 439.345,828.475 439.451,828.717 C439.52,828.872 439.499,829.044 439.411,829.175 C438.973,829.833 438.476,830.45 437.931,831.016 C437.446,831.52 436.92,831.986 436.359,832.407 Z" id="Fill-12"></path>
        </g>
    </g>
</svg>